<svg width="500" height="500" viewBox="0 0 500 500" fill="none" xmlns="http://www.w3.org/2000/svg">
<path fill-rule="evenodd" clip-rule="evenodd" d="M250 500C388.071 500 500 388.071 500 250C500 111.929 388.071 0 250 0C111.929 0 0 111.929 0 250C0 388.071 111.929 500 250 500ZM250 496.875C386.345 496.875 496.875 386.345 496.875 250C496.875 113.655 386.345 3.125 250 3.125C113.655 3.125 3.125 113.655 3.125 250C3.125 386.345 113.655 496.875 250 496.875Z" fill="url(#paint0_linear_1_9)"/>
<path d="M375.193 465.113C377.536 463.863 379.883 462.539 382.236 461.139C302.064 501.656 232.875 398.276 165.762 390.517C65.762 378.957 -5.17202 325.862 14.6551 170.689C8.33957 214.084 9.21159 249.098 15.228 277.496C35.9586 366.114 111.544 389.107 165.762 398.276C223.921 408.111 311.795 495.815 375.193 465.113Z" fill="url(#paint1_linear_1_9)"/>
<path d="M327.803 472.885C330.891 473.062 333.927 473.153 336.903 473.151C283.576 469.039 219.626 417.461 165.762 405.172C118.439 394.376 60.9568 377.257 30.8922 321.332C64.4147 384.478 129.767 402.865 165.762 411.207C211.438 421.792 270.497 463.129 321.929 472.215C323.898 472.482 325.857 472.706 327.803 472.885Z" fill="url(#paint2_linear_1_9)"/>
<path d="M5.66475 233.492C1.13285 370.116 109.23 418.25 165.762 436.207C228.758 456.217 304.567 487.009 358.011 472.249C333.932 478.606 306.982 473.868 279.253 465.015C237.85 455.039 194.918 438.441 165.762 430.172C115.205 415.835 2.37293 367.812 5.66475 233.492Z" fill="url(#paint3_linear_1_9)"/>
<path d="M14.6551 170.689C-31.0341 345.689 82.662 422.884 165.762 448.276C242.921 471.852 300.015 490.645 351.165 475.291C304.798 486.578 241.922 467.398 165.762 442.241C67.9094 409.92 -27.5858 335.345 14.6551 170.689Z" fill="url(#paint4_linear_1_9)"/>
<path d="M14.6551 170.689C-37.0686 352.586 97.9982 455.966 168.688 476.656C233.153 495.524 298.851 502.921 363.533 471.385C362.437 471.818 361.329 472.23 360.211 472.622C297.511 500.25 233.841 486.621 167.486 468.103C93.3482 447.414 -35.3444 350 14.6551 170.689Z" fill="url(#paint5_linear_1_9)"/>
<path d="M14.6551 170.689C-29.31 363.793 123.634 411.973 165.762 423.276C201.434 432.846 241.082 452.829 279.253 465.015C294.922 468.79 310.371 471.617 324.772 472.685C323.827 472.54 322.879 472.383 321.929 472.215C269.654 465.14 209.883 428.244 165.762 417.241C95.9344 399.828 -20.6893 350 14.6551 170.689Z" fill="url(#paint6_linear_1_9)"/>
<path d="M6.79285 207.733C-15.9948 360.505 95.45 442.014 166.624 461.207C233.679 479.289 295.54 497.32 356.106 473.952C355.306 474.192 354.5 474.421 353.689 474.641C295.954 495.1 239.208 475.049 166.624 454.31C88.307 431.934 -16.149 358.44 6.79285 207.733Z" fill="url(#paint7_linear_1_9)"/>
<path d="M96 71H172.294V73.6512C149.688 73.6512 149.688 97.5118 149.688 97.5118V190.303C149.688 190.303 166.642 166.443 186.422 166.443C211.853 166.443 211.853 177.047 237.284 177.047C251.413 177.047 257.064 166.443 257.064 166.443V97.5118C257.064 97.5118 257.064 73.6512 234.459 73.6512V71H310.752V73.6512C288.147 73.6512 288.147 97.5118 288.147 97.5118V208.861C288.147 208.861 293.798 206.21 310.752 206.21C319.229 206.21 374.33 210.187 398.349 235.373L385.633 265.862C346.073 216.815 303.688 204.885 288.147 214.164V269.839C288.147 269.839 288.147 293.699 310.752 293.699V296.35H234.459V293.699C257.064 293.699 257.064 269.839 257.064 269.839C257.064 269.839 258.006 232.28 257.064 224.769C241.523 235.373 220.33 245.829 220.33 299.002C220.33 337.444 237.284 409.026 329.119 411.677C360.752 412.59 385.633 397.095 404 377.211C395.052 395.328 363.875 431.03 310.752 428.91C244.349 426.258 190.661 382.514 190.661 318.885C190.661 255.257 244.349 219.466 257.064 216.815V177.047C257.064 177.047 240.11 200.908 220.33 200.908C194.899 200.908 196.312 190.303 172.294 190.303C160.991 190.303 149.688 198.257 149.688 198.257V269.839C149.688 269.839 149.688 293.699 172.294 293.699V296.35H96V293.699C118.606 293.699 118.606 269.839 118.606 269.839V97.5118C118.606 97.5118 118.606 73.6512 96 73.6512V71Z" fill="url(#paint8_linear_1_9)"/>
<path d="M149.688 97.5118C149.688 97.5118 149.688 73.6512 172.294 73.6512V71H96V73.6512C118.606 73.6512 118.606 97.5118 118.606 97.5118M149.688 97.5118C149.688 97.5118 149.688 164.675 149.688 190.303M149.688 97.5118V190.303M149.688 190.303C149.688 190.303 166.642 166.443 186.422 166.443C211.853 166.443 211.853 177.047 237.284 177.047C251.413 177.047 257.064 166.443 257.064 166.443V97.5118C257.064 97.5118 257.064 73.6512 234.459 73.6512V71H310.752V73.6512C288.147 73.6512 288.147 97.5118 288.147 97.5118V208.861C288.147 208.861 293.798 206.21 310.752 206.21C319.229 206.21 374.33 210.187 398.349 235.373L385.633 265.862C346.073 216.815 303.688 204.885 288.147 214.164V269.839C288.147 269.839 288.147 293.699 310.752 293.699V296.35H234.459V293.699C257.064 293.699 257.064 269.839 257.064 269.839C257.064 269.839 258.006 232.28 257.064 224.769C241.523 235.373 220.33 245.829 220.33 299.002C220.33 337.444 237.284 409.026 329.119 411.677C360.752 412.59 385.633 397.095 404 377.211C395.052 395.328 363.875 431.03 310.752 428.91C244.349 426.258 190.661 382.514 190.661 318.885C190.661 255.257 244.349 219.466 257.064 216.815V177.047C257.064 177.047 240.11 200.908 220.33 200.908C194.899 200.908 196.312 190.303 172.294 190.303C160.991 190.303 149.688 198.257 149.688 198.257V269.839C149.688 269.839 149.688 293.699 172.294 293.699V296.35H96V293.699C118.606 293.699 118.606 269.839 118.606 269.839M118.606 269.839C118.606 269.839 118.606 147.442 118.606 97.5118M118.606 269.839V97.5118" stroke="black"/>
<defs>
<linearGradient id="paint0_linear_1_9" x1="13.7931" y1="173.276" x2="382.759" y2="458.621" gradientUnits="userSpaceOnUse">
<stop stop-color="#DFA94D"/>
<stop offset="0.0729167" stop-color="#BD6513"/>
<stop offset="0.416667" stop-color="#C5A050"/>
<stop offset="0.839719" stop-color="#C97B24"/>
<stop offset="1" stop-color="#D0862D"/>
</linearGradient>
<linearGradient id="paint1_linear_1_9" x1="3.12501" y1="170.687" x2="382.25" y2="460.25" gradientUnits="userSpaceOnUse">
<stop stop-color="#BD6513"/>
<stop offset="0.192708" stop-color="#EFC75E"/>
<stop offset="0.447917" stop-color="#BD6513"/>
<stop offset="0.739583" stop-color="#EFC75E"/>
<stop offset="1" stop-color="#BD6513"/>
</linearGradient>
<linearGradient id="paint2_linear_1_9" x1="3.12501" y1="170.687" x2="382.25" y2="460.25" gradientUnits="userSpaceOnUse">
<stop stop-color="#BD6513"/>
<stop offset="0.192708" stop-color="#EFC75E"/>
<stop offset="0.447917" stop-color="#BD6513"/>
<stop offset="0.739583" stop-color="#EFC75E"/>
<stop offset="1" stop-color="#BD6513"/>
</linearGradient>
<linearGradient id="paint3_linear_1_9" x1="3.12501" y1="170.687" x2="382.25" y2="460.25" gradientUnits="userSpaceOnUse">
<stop stop-color="#BD6513"/>
<stop offset="0.192708" stop-color="#EFC75E"/>
<stop offset="0.447917" stop-color="#BD6513"/>
<stop offset="0.739583" stop-color="#EFC75E"/>
<stop offset="1" stop-color="#BD6513"/>
</linearGradient>
<linearGradient id="paint4_linear_1_9" x1="3.12501" y1="170.687" x2="382.25" y2="460.25" gradientUnits="userSpaceOnUse">
<stop stop-color="#BD6513"/>
<stop offset="0.192708" stop-color="#EFC75E"/>
<stop offset="0.447917" stop-color="#BD6513"/>
<stop offset="0.739583" stop-color="#EFC75E"/>
<stop offset="1" stop-color="#BD6513"/>
</linearGradient>
<linearGradient id="paint5_linear_1_9" x1="3.12501" y1="170.687" x2="382.25" y2="460.25" gradientUnits="userSpaceOnUse">
<stop stop-color="#BD6513"/>
<stop offset="0.192708" stop-color="#EFC75E"/>
<stop offset="0.447917" stop-color="#BD6513"/>
<stop offset="0.739583" stop-color="#EFC75E"/>
<stop offset="1" stop-color="#BD6513"/>
</linearGradient>
<linearGradient id="paint6_linear_1_9" x1="3.12501" y1="170.687" x2="382.25" y2="460.25" gradientUnits="userSpaceOnUse">
<stop stop-color="#BD6513"/>
<stop offset="0.192708" stop-color="#EFC75E"/>
<stop offset="0.447917" stop-color="#BD6513"/>
<stop offset="0.739583" stop-color="#EFC75E"/>
<stop offset="1" stop-color="#BD6513"/>
</linearGradient>
<linearGradient id="paint7_linear_1_9" x1="3.12501" y1="170.687" x2="382.25" y2="460.25" gradientUnits="userSpaceOnUse">
<stop stop-color="#BD6513"/>
<stop offset="0.192708" stop-color="#EFC75E"/>
<stop offset="0.447917" stop-color="#BD6513"/>
<stop offset="0.739583" stop-color="#EFC75E"/>
<stop offset="1" stop-color="#BD6513"/>
</linearGradient>
<linearGradient id="paint8_linear_1_9" x1="94.5377" y1="127.351" x2="333.324" y2="398.146" gradientUnits="userSpaceOnUse">
<stop stop-color="#BD6513"/>
<stop offset="0.223958" stop-color="#EFC75E"/>
<stop offset="0.755208" stop-color="#EFC75E"/>
<stop offset="1" stop-color="#BD6513"/>
</linearGradient>
</defs>
</svg>
