<svg width="500" height="500" viewBox="0 0 500 500" fill="none" xmlns="http://www.w3.org/2000/svg">
<path fill-rule="evenodd" clip-rule="evenodd" d="M250 500C388.071 500 500 388.071 500 250C500 111.929 388.071 0 250 0C111.929 0 0 111.929 0 250C0 388.071 111.929 500 250 500ZM250 496.875C386.345 496.875 496.875 386.345 496.875 250C496.875 113.655 386.345 3.125 250 3.125C113.655 3.125 3.125 113.655 3.125 250C3.125 386.345 113.655 496.875 250 496.875Z" fill="url(#paint0_linear_11_317)"/>
<path d="M375.193 465.113C377.536 463.863 379.883 462.539 382.236 461.139C302.064 501.656 232.875 398.276 165.762 390.517C65.762 378.957 -5.17202 325.862 14.6551 170.689C8.33957 214.084 9.21159 249.098 15.228 277.496C35.9586 366.114 111.544 389.107 165.762 398.276C223.921 408.111 311.795 495.815 375.193 465.113Z" fill="url(#paint1_linear_11_317)"/>
<path d="M327.803 472.885C330.891 473.062 333.927 473.153 336.903 473.151C283.576 469.039 219.626 417.461 165.762 405.172C118.439 394.376 60.9568 377.257 30.8922 321.332C64.4147 384.478 129.767 402.865 165.762 411.207C211.438 421.792 270.497 463.129 321.929 472.215C323.898 472.482 325.857 472.706 327.803 472.885Z" fill="url(#paint2_linear_11_317)"/>
<path d="M5.66475 233.492C1.13285 370.116 109.23 418.25 165.762 436.207C228.758 456.217 304.567 487.009 358.011 472.249C333.932 478.606 306.982 473.868 279.253 465.015C237.85 455.039 194.918 438.441 165.762 430.172C115.205 415.835 2.37293 367.812 5.66475 233.492Z" fill="url(#paint3_linear_11_317)"/>
<path d="M14.6551 170.689C-31.0341 345.689 82.662 422.884 165.762 448.276C242.921 471.852 300.015 490.645 351.165 475.291C304.798 486.578 241.922 467.398 165.762 442.241C67.9094 409.92 -27.5858 335.345 14.6551 170.689Z" fill="url(#paint4_linear_11_317)"/>
<path d="M14.6551 170.689C-37.0686 352.586 97.9982 455.966 168.688 476.656C233.153 495.524 298.851 502.921 363.533 471.385C362.437 471.818 361.329 472.23 360.211 472.622C297.511 500.25 233.841 486.621 167.486 468.103C93.3482 447.414 -35.3444 350 14.6551 170.689Z" fill="url(#paint5_linear_11_317)"/>
<path d="M14.6551 170.689C-29.31 363.793 123.634 411.973 165.762 423.276C201.434 432.846 241.082 452.829 279.253 465.015C294.922 468.79 310.371 471.617 324.772 472.685C323.827 472.54 322.879 472.383 321.929 472.215C269.654 465.14 209.883 428.244 165.762 417.241C95.9344 399.828 -20.6893 350 14.6551 170.689Z" fill="url(#paint6_linear_11_317)"/>
<path d="M6.79285 207.733C-15.9948 360.505 95.45 442.014 166.624 461.207C233.679 479.289 295.54 497.32 356.106 473.952C355.306 474.192 354.5 474.421 353.689 474.641C295.954 495.1 239.208 475.049 166.624 454.31C88.307 431.934 -16.149 358.44 6.79285 207.733Z" fill="url(#paint7_linear_11_317)"/>
<path d="M165.517 143.103H212.069V144.827C198.276 144.827 198.276 160.344 198.276 160.344V220.689C198.276 220.689 208.621 205.172 220.69 205.172C236.207 205.172 236.207 212.069 251.724 212.069C260.345 212.069 263.793 205.172 263.793 205.172V160.344C263.793 160.344 263.793 144.827 250 144.827V143.103H296.552V144.827C282.759 144.827 282.759 160.344 282.759 160.344V232.758C282.759 232.758 286.207 231.034 296.552 231.034C301.724 231.034 335.345 233.62 350 250L342.241 269.827C318.103 237.931 292.241 230.172 282.759 236.206V272.413C282.759 272.413 282.759 287.931 296.552 287.931V289.655H250V287.931C263.793 287.931 263.793 272.413 263.793 272.413C263.793 272.413 264.368 247.988 263.793 243.103C254.31 250 241.379 256.799 241.379 291.379C241.379 316.379 251.724 362.931 307.759 364.655C327.06 365.249 342.241 355.172 353.448 342.241C347.989 354.023 328.966 377.241 296.552 375.862C256.035 374.138 223.276 345.689 223.276 304.31C223.276 262.931 256.035 239.655 263.793 237.931V212.069C263.793 212.069 253.448 227.586 241.379 227.586C225.862 227.586 226.724 220.689 212.069 220.689C205.172 220.689 198.276 225.862 198.276 225.862V272.413C198.276 272.413 198.276 287.931 212.069 287.931V289.655H165.517V287.931C179.31 287.931 179.31 272.413 179.31 272.413V160.344C179.31 160.344 179.31 144.827 165.517 144.827V143.103Z" fill="url(#paint8_linear_11_317)"/>
<path d="M398.473 422.807L400.908 420.764L403.132 422.732C404.238 422.515 405.021 422.426 406.533 421.158C409.051 419.044 408.87 415.929 406.003 412.512C402.785 408.678 399.315 409.317 397.72 410.655C396.444 411.726 395.668 413.04 395.439 413.564L396.782 415.846L394.347 417.889L391.27 414.222C391.438 413.228 392.446 410.429 395.552 408.072C400.884 404.024 405.92 405.763 409.277 409.764C413.758 415.105 412.381 420.795 408.533 423.882C405.454 426.352 402.642 426.695 401.621 426.558L398.473 422.807Z" fill="url(#paint9_linear_11_317)"/>
<path d="M435.649 392.598L440.975 386.021L439.006 384.426L437.27 385.813L426.742 377.287L427.773 375.33L425.768 373.706L420.442 380.283L422.447 381.907L424.01 380.66L427.854 383.773L423.074 389.675L419.231 386.563L420.194 384.69L418.189 383.066L412.931 389.559L414.936 391.183L416.499 389.935L427.028 398.461L426.101 400.363L428.07 401.958L433.464 395.296L431.495 393.702L429.759 395.088L425.748 391.84L430.528 385.938L434.539 389.186L433.68 391.003L435.649 392.598Z" fill="url(#paint10_linear_11_317)"/>
<path d="M474.676 307.447L472.315 306.68L471.29 308.427L458.741 304.349L459.017 302.359L456.639 301.586L453.997 309.717L456.328 310.474L457.478 308.446L468.68 311.739L468.646 311.843L453.036 313.012L451.99 316.231L464.058 326.3L464.024 326.405L452.859 322.661L453.142 320.442L450.763 319.669L448.114 327.822L450.448 328.581L451.535 326.738L464.066 330.81L463.773 332.91L466.152 333.683L468.83 325.44L458.173 316.761L458.241 316.552L471.993 315.704L474.676 307.447Z" fill="url(#paint11_linear_11_317)"/>
<path fill-rule="evenodd" clip-rule="evenodd" d="M460.96 260.207H458.459V267.678H460.96L461.168 266.299L463.461 266.989V274.064L461.168 274.92L460.96 273.54H458.459V280.897H460.96L461.168 279.402L477.425 272.966V268.138L461.168 261.701L460.96 260.207ZM473.256 270.552L466.483 268.023V273.081L473.256 270.552Z" fill="url(#paint12_linear_11_317)"/>
<path d="M474.324 221.11L476.765 221.067L477.037 236.67L471.519 236.766L471.464 233.582L473.688 233.331L473.585 227.387L468.703 227.472L468.82 234.159L465.53 234.216L465.414 227.53L460.532 227.615L460.037 229.641L457.596 229.683L457.558 221.403L459.892 221.362L460.458 223.369L473.829 223.136L474.324 221.11Z" fill="url(#paint13_linear_11_317)"/>
<path d="M452.822 164.609L456.741 162.347C457.183 159.019 455.693 156.437 455.161 155.515L455.161 155.515C451.754 149.615 447.655 151.142 446.77 151.756C445.703 152.495 443.57 153.52 444.366 158.798C445.201 164.339 445.121 164.631 443.721 165.439C443.161 165.762 441.737 166.095 440.405 163.789C439.34 161.945 439.337 160.431 439.515 159.878L441.635 158.162L440.038 155.396L435.746 157.874C435.784 160.311 435.69 162.086 437.712 165.589C439.735 169.092 442.958 170.796 446.223 168.911C449.489 167.025 448.853 163.337 448.308 160.455C447.764 157.573 447.779 156.09 448.899 155.443C450.018 154.797 451.457 155.564 452.361 157.132C453.085 158.385 453.221 159.626 453.199 160.09L451.225 161.844L452.822 164.609Z" fill="url(#paint14_linear_11_317)"/>
<path fill-rule="evenodd" clip-rule="evenodd" d="M430.617 114.964C428.523 112.184 423.158 109.145 417.035 113.759C409.896 119.138 413.336 125.671 414.449 127.148C415.758 128.885 421.129 133.691 428.097 128.44C434.977 123.255 432.123 116.962 430.617 114.964ZM419.653 117.234C424.465 113.607 426.969 115.67 427.951 116.973C428.237 117.303 430.832 120.795 425.479 124.965C420.126 129.135 417.573 125.747 417.115 125.139C416.133 123.836 414.841 120.86 419.653 117.234Z" fill="url(#paint15_linear_11_317)"/>
<path d="M398.528 83.8854L400.18 81.916L406.561 87.2701L404.908 89.2395L403.079 88.2635L394.376 98.6352L395.682 100.235L394.029 102.205L387.649 96.8506L389.301 94.8812L391.104 95.8895L399.807 85.5178L398.528 83.8854Z" fill="url(#paint16_linear_11_317)"/>
<path d="M372.697 69.2858L370.05 67.6948L371.192 64.9656C370.65 64.0071 370.325 63.3061 368.682 62.3186C365.943 60.6727 363.106 61.878 360.816 65.6891C358.247 69.9649 359.91 72.9883 361.645 74.0307C363.032 74.8646 364.492 75.1513 365.049 75.1905L366.754 73.179L369.402 74.77L366.945 78.86C365.97 79.0336 363.06 79.0241 359.913 76.9123C354.511 73.2868 354.574 68.0113 357.255 63.5495C360.834 57.5939 366.543 56.985 370.596 59.5467C373.838 61.5961 375.023 64.1047 375.211 65.1029L372.697 69.2858Z" fill="url(#paint17_linear_11_317)"/>
<path d="M328.354 40.7696L329.321 38.376L337.069 41.5061L336.102 43.8998L334.053 43.5363L328.96 56.1423L330.702 57.2644L329.735 59.6581L321.987 56.5279L322.955 54.1343L324.987 54.5371L330.08 41.9311L328.354 40.7696Z" fill="url(#paint18_linear_11_317)"/>
<path d="M283.761 30.9254L284.194 28.4746L292.224 29.8905L291.792 32.3413L290.045 32.3629L291.831 45.0928L297.652 33.7043L295.807 33.0493L296.239 30.5985L303.846 31.9399L303.414 34.3907L301.562 34.3936L293.049 49.9221L288.506 49.121L285.396 31.5431L283.761 30.9254Z" fill="url(#paint19_linear_11_317)"/>
<path fill-rule="evenodd" clip-rule="evenodd" d="M242.942 24V26.6926L244.929 27.183V41.5619L242.942 41.9613V44.6897H251.134V42.0048L249.114 41.5066V36.8458H252.434L255.077 44.6897H260.183V42.0017L258.425 41.5066L256.228 35.8227C257.239 35.33 259.526 32.9751 259.366 30.2524C259.157 26.6926 257.169 24.341 252.566 24H242.942ZM249.114 33.3217V27.4104H252.434C254.24 27.6377 255.077 28.5472 255.077 30.4797C255.077 32.7606 253.822 33.0944 252.434 33.3217H249.114Z" fill="url(#paint20_linear_11_317)"/>
<path d="M216.036 27.6348L200.961 30.293L201.407 32.8223L203.484 32.8907L205.844 46.2751L203.915 47.0498L204.343 49.4737L219.734 46.7598L218.786 41.385L215.624 41.9427L215.785 44.0876L209.986 45.11L209.094 40.0513L215.42 38.936L214.851 35.7119L208.526 36.8272L207.757 32.4633L213.238 31.4967L213.781 33.5262L216.975 32.963L216.036 27.6348Z" fill="url(#paint21_linear_11_317)"/>
<path d="M175.785 42.8919L174.124 38.7811C170.857 37.9379 168.039 39.0763 167.033 39.4829L167.033 39.4829C160.593 42.0849 161.489 46.281 161.966 47.2226C162.541 48.3564 163.239 50.5682 168.651 50.4419C174.334 50.3093 174.614 50.4238 175.207 51.8919C175.444 52.4791 175.558 53.9133 173.04 54.9306C171.028 55.7437 169.51 55.56 168.983 55.3176L167.591 53.0333L164.573 54.2531L166.392 58.7553C168.839 59.0188 170.604 59.3305 174.428 57.7855C178.252 56.2405 180.458 53.2997 179.074 49.8741C177.69 46.4485 173.895 46.6157 170.923 46.7919C167.95 46.9681 166.466 46.7708 165.991 45.5963C165.517 44.4218 166.509 43.1103 168.219 42.4191C169.588 41.8662 170.853 41.8865 171.314 41.9658L172.766 44.1116L175.785 42.8919Z" fill="url(#paint22_linear_11_317)"/>
<path d="M129.236 60.2607L127.911 58.0566L135.074 53.7531L136.398 55.9572L134.874 57.3728L141.849 68.9804L143.792 68.2633L145.117 70.4673L137.954 74.7709L136.63 72.5668L138.176 71.1873L131.201 59.5798L129.236 60.2607Z" fill="url(#paint23_linear_11_317)"/>
<path d="M98.0315 87.2569L94.4423 82.9795L108.063 71.5503L111.583 75.7455L109.107 77.8235L107.561 76.3169L105.002 78.4642L113.519 88.6142L115.451 87.5642L117.076 89.4998L110.554 94.9719L108.898 92.9977L110.251 91.3567L101.734 81.2067L99.2236 83.3129L100.508 85.1789L100.496 85.1885L98.0315 87.2569Z" fill="url(#paint24_linear_11_317)"/>
<path d="M68.6798 115.241L66.6508 113.712L71.9301 106.706L73.9592 108.235L72.8721 110.463L83.4433 118.429L86.5173 114.349L84.3751 112.589L86.341 109.98L91.2177 113.655L82.2927 125.499L80.23 123.945L81.1539 122.096L70.2805 113.902L68.6798 115.241Z" fill="url(#paint25_linear_11_317)"/>
<path d="M43.3937 152.069L41.1312 150.763L45.4329 143.312L47.6954 144.618L47.0246 146.651L55.6976 151.658C56.2632 151.985 58.8477 153.604 60.8331 150.165C62.4876 147.3 60.7836 145.679 59.5581 144.972L50.8851 139.964L49.4602 141.562L47.1976 140.255L51.4993 132.804L53.7619 134.111L53.0359 136.239L61.8975 141.355C66.0294 143.995 65.7569 148.168 63.5509 151.989C60.628 157.052 56.3198 157.112 53.4916 155.479L44.8186 150.472L43.3937 152.069Z" fill="url(#paint26_linear_11_317)"/>
<path d="M23 204.422L25.3739 205.148L26.368 203.384L38.9855 207.245L38.744 209.24L41.1355 209.971L43.6329 201.795L41.289 201.078L40.1755 203.126L28.9189 200.027L28.951 199.921L44.5355 198.484L45.5243 195.247L33.2822 185.386L33.3143 185.281L44.5421 188.831L44.2986 191.055L46.6901 191.787L49.1944 183.588L46.8477 182.87L45.7943 184.732L33.1947 180.876L33.4505 178.771L31.059 178.039L28.5271 186.328L39.334 194.823L39.2698 195.033L25.5365 196.118L23 204.422Z" fill="url(#paint27_linear_11_317)"/>
<defs>
<linearGradient id="paint0_linear_11_317" x1="13.7931" y1="173.276" x2="382.759" y2="458.621" gradientUnits="userSpaceOnUse">
<stop stop-color="#DFA94D"/>
<stop offset="0.0729167" stop-color="#BD6513"/>
<stop offset="0.416667" stop-color="#C5A050"/>
<stop offset="0.839719" stop-color="#C97B24"/>
<stop offset="1" stop-color="#D0862D"/>
</linearGradient>
<linearGradient id="paint1_linear_11_317" x1="3.12501" y1="170.687" x2="382.25" y2="460.25" gradientUnits="userSpaceOnUse">
<stop stop-color="#BD6513"/>
<stop offset="0.192708" stop-color="#EFC75E"/>
<stop offset="0.447917" stop-color="#BD6513"/>
<stop offset="0.739583" stop-color="#EFC75E"/>
<stop offset="1" stop-color="#BD6513"/>
</linearGradient>
<linearGradient id="paint2_linear_11_317" x1="3.12501" y1="170.687" x2="382.25" y2="460.25" gradientUnits="userSpaceOnUse">
<stop stop-color="#BD6513"/>
<stop offset="0.192708" stop-color="#EFC75E"/>
<stop offset="0.447917" stop-color="#BD6513"/>
<stop offset="0.739583" stop-color="#EFC75E"/>
<stop offset="1" stop-color="#BD6513"/>
</linearGradient>
<linearGradient id="paint3_linear_11_317" x1="3.12501" y1="170.687" x2="382.25" y2="460.25" gradientUnits="userSpaceOnUse">
<stop stop-color="#BD6513"/>
<stop offset="0.192708" stop-color="#EFC75E"/>
<stop offset="0.447917" stop-color="#BD6513"/>
<stop offset="0.739583" stop-color="#EFC75E"/>
<stop offset="1" stop-color="#BD6513"/>
</linearGradient>
<linearGradient id="paint4_linear_11_317" x1="3.12501" y1="170.687" x2="382.25" y2="460.25" gradientUnits="userSpaceOnUse">
<stop stop-color="#BD6513"/>
<stop offset="0.192708" stop-color="#EFC75E"/>
<stop offset="0.447917" stop-color="#BD6513"/>
<stop offset="0.739583" stop-color="#EFC75E"/>
<stop offset="1" stop-color="#BD6513"/>
</linearGradient>
<linearGradient id="paint5_linear_11_317" x1="3.12501" y1="170.687" x2="382.25" y2="460.25" gradientUnits="userSpaceOnUse">
<stop stop-color="#BD6513"/>
<stop offset="0.192708" stop-color="#EFC75E"/>
<stop offset="0.447917" stop-color="#BD6513"/>
<stop offset="0.739583" stop-color="#EFC75E"/>
<stop offset="1" stop-color="#BD6513"/>
</linearGradient>
<linearGradient id="paint6_linear_11_317" x1="3.12501" y1="170.687" x2="382.25" y2="460.25" gradientUnits="userSpaceOnUse">
<stop stop-color="#BD6513"/>
<stop offset="0.192708" stop-color="#EFC75E"/>
<stop offset="0.447917" stop-color="#BD6513"/>
<stop offset="0.739583" stop-color="#EFC75E"/>
<stop offset="1" stop-color="#BD6513"/>
</linearGradient>
<linearGradient id="paint7_linear_11_317" x1="3.12501" y1="170.687" x2="382.25" y2="460.25" gradientUnits="userSpaceOnUse">
<stop stop-color="#BD6513"/>
<stop offset="0.192708" stop-color="#EFC75E"/>
<stop offset="0.447917" stop-color="#BD6513"/>
<stop offset="0.739583" stop-color="#EFC75E"/>
<stop offset="1" stop-color="#BD6513"/>
</linearGradient>
<linearGradient id="paint8_linear_11_317" x1="164.625" y1="179.75" x2="320.844" y2="345.968" gradientUnits="userSpaceOnUse">
<stop stop-color="#EFC75E"/>
<stop offset="0.223958" stop-color="#BD6513"/>
<stop offset="0.755208" stop-color="#BD6513"/>
<stop offset="1" stop-color="#EFC75E"/>
</linearGradient>
<linearGradient id="paint9_linear_11_317" x1="413.068" y1="413.272" x2="392.711" y2="419.541" gradientUnits="userSpaceOnUse">
<stop stop-color="#EFC75E"/>
<stop offset="0.479167" stop-color="#BD6513"/>
<stop offset="1" stop-color="#EFC75E"/>
</linearGradient>
<linearGradient id="paint10_linear_11_317" x1="437.605" y1="382.263" x2="414.5" y2="391.819" gradientUnits="userSpaceOnUse">
<stop stop-color="#EFC75E"/>
<stop offset="0.479167" stop-color="#BD6513"/>
<stop offset="1" stop-color="#EFC75E"/>
</linearGradient>
<linearGradient id="paint11_linear_11_317" x1="470.414" y1="304.931" x2="445.369" y2="322.443" gradientUnits="userSpaceOnUse">
<stop stop-color="#EFC75E"/>
<stop offset="0.479167" stop-color="#BD6513"/>
<stop offset="1" stop-color="#EFC75E"/>
</linearGradient>
<linearGradient id="paint12_linear_11_317" x1="472.594" y1="259.4" x2="460.286" y2="281.148" gradientUnits="userSpaceOnUse">
<stop stop-color="#EFC75E"/>
<stop offset="0.479167" stop-color="#BD6513"/>
<stop offset="1" stop-color="#EFC75E"/>
</linearGradient>
<linearGradient id="paint13_linear_11_317" x1="471.835" y1="220.545" x2="464.438" y2="239.098" gradientUnits="userSpaceOnUse">
<stop stop-color="#EFC75E"/>
<stop offset="0.479167" stop-color="#BD6513"/>
<stop offset="1" stop-color="#EFC75E"/>
</linearGradient>
<linearGradient id="paint14_linear_11_317" x1="446.596" y1="150.944" x2="449.645" y2="169.89" gradientUnits="userSpaceOnUse">
<stop stop-color="#EFC75E"/>
<stop offset="0.479167" stop-color="#BD6513"/>
<stop offset="1" stop-color="#EFC75E"/>
</linearGradient>
<linearGradient id="paint15_linear_11_317" x1="420.569" y1="110.198" x2="425.28" y2="132.791" gradientUnits="userSpaceOnUse">
<stop stop-color="#EFC75E"/>
<stop offset="0.479167" stop-color="#BD6513"/>
<stop offset="1" stop-color="#EFC75E"/>
</linearGradient>
<linearGradient id="paint16_linear_11_317" x1="396.739" y1="85.5113" x2="403.61" y2="94.4646" gradientUnits="userSpaceOnUse">
<stop stop-color="#EFC75E"/>
<stop offset="0.479167" stop-color="#BD6513"/>
<stop offset="1" stop-color="#EFC75E"/>
</linearGradient>
<linearGradient id="paint17_linear_11_317" x1="359.344" y1="58.8469" x2="371.741" y2="75.5226" gradientUnits="userSpaceOnUse">
<stop stop-color="#EFC75E"/>
<stop offset="0.479167" stop-color="#BD6513"/>
<stop offset="1" stop-color="#EFC75E"/>
</linearGradient>
<linearGradient id="paint18_linear_11_317" x1="327.151" y1="42.8774" x2="336.484" y2="49.2879" gradientUnits="userSpaceOnUse">
<stop stop-color="#EFC75E"/>
<stop offset="0.479167" stop-color="#BD6513"/>
<stop offset="1" stop-color="#EFC75E"/>
</linearGradient>
<linearGradient id="paint19_linear_11_317" x1="282.561" y1="33.2519" x2="301.891" y2="48.2798" gradientUnits="userSpaceOnUse">
<stop stop-color="#EFC75E"/>
<stop offset="0.479167" stop-color="#BD6513"/>
<stop offset="1" stop-color="#EFC75E"/>
</linearGradient>
<linearGradient id="paint20_linear_11_317" x1="242.27" y1="29.2699" x2="262.43" y2="37.9853" gradientUnits="userSpaceOnUse">
<stop stop-color="#EFC75E"/>
<stop offset="0.479167" stop-color="#BD6513"/>
<stop offset="1" stop-color="#EFC75E"/>
</linearGradient>
<linearGradient id="paint21_linear_11_317" x1="201.222" y1="35.2843" x2="220.764" y2="39.6528" gradientUnits="userSpaceOnUse">
<stop stop-color="#EFC75E"/>
<stop offset="0.479167" stop-color="#BD6513"/>
<stop offset="1" stop-color="#EFC75E"/>
</linearGradient>
<linearGradient id="paint22_linear_11_317" x1="161.126" y1="47.2924" x2="180.588" y2="47.1655" gradientUnits="userSpaceOnUse">
<stop stop-color="#EFC75E"/>
<stop offset="0.479167" stop-color="#BD6513"/>
<stop offset="1" stop-color="#EFC75E"/>
</linearGradient>
<linearGradient id="paint23_linear_11_317" x1="130.19" y1="62.4817" x2="140.927" y2="58.8961" gradientUnits="userSpaceOnUse">
<stop stop-color="#EFC75E"/>
<stop offset="0.479167" stop-color="#BD6513"/>
<stop offset="1" stop-color="#EFC75E"/>
</linearGradient>
<linearGradient id="paint24_linear_11_317" x1="97.1109" y1="87.2384" x2="118.693" y2="81.5631" gradientUnits="userSpaceOnUse">
<stop stop-color="#EFC75E"/>
<stop offset="0.479167" stop-color="#BD6513"/>
<stop offset="1" stop-color="#EFC75E"/>
</linearGradient>
<linearGradient id="paint25_linear_11_317" x1="70.2869" y1="117.176" x2="86.6111" y2="107.151" gradientUnits="userSpaceOnUse">
<stop stop-color="#EFC75E"/>
<stop offset="0.479167" stop-color="#BD6513"/>
<stop offset="1" stop-color="#EFC75E"/>
</linearGradient>
<linearGradient id="paint26_linear_11_317" x1="45.1451" y1="154.014" x2="66.7017" y2="140.669" gradientUnits="userSpaceOnUse">
<stop stop-color="#EFC75E"/>
<stop offset="0.479167" stop-color="#BD6513"/>
<stop offset="1" stop-color="#EFC75E"/>
</linearGradient>
<linearGradient id="paint27_linear_11_317" x1="27.3051" y1="206.864" x2="52.0361" y2="188.923" gradientUnits="userSpaceOnUse">
<stop stop-color="#EFC75E"/>
<stop offset="0.479167" stop-color="#BD6513"/>
<stop offset="1" stop-color="#EFC75E"/>
</linearGradient>
</defs>
</svg>
